<?xml version="1.0" standalone="no"?>
<!DOCTYPE svg PUBLIC "-//W3C//DTD SVG 20010904//EN"
 "http://www.w3.org/TR/2001/REC-SVG-20010904/DTD/svg10.dtd">
<svg version="1.0" xmlns="http://www.w3.org/2000/svg"
 width="512.000000pt" height="512.000000pt" viewBox="0 0 512.000000 512.000000"
 preserveAspectRatio="xMidYMid meet">

<g transform="translate(0.000000,512.000000) scale(0.100000,-0.100000)"
fill="#ffffff" stroke="none">
<path d="M820 5101 c-19 -10 -48 -35 -65 -55 l-30 -38 -3 -2436 c-2 -2360 -2
-2438 16 -2472 11 -19 36 -48 56 -65 l38 -30 1727 0 1728 0 37 29 c21 16 47
47 57 70 18 40 19 119 19 2461 0 2339 -1 2421 -19 2455 -10 19 -35 48 -55 65
l-38 30 -1198 3 c-1160 2 -1198 2 -1221 -17 -28 -23 -32 -83 -6 -109 17 -16
95 -17 1200 -22 l1182 -5 0 -2405 0 -2405 -1685 0 -1685 0 0 2405 0 2405 373
5 374 5 19 24 c26 32 24 67 -6 96 l-24 25 -378 0 c-349 0 -381 -1 -413 -19z"/>
<path d="M1183 4700 c-64 -38 -63 -33 -63 -527 0 -427 1 -450 20 -480 38 -63
41 -63 447 -63 351 0 369 1 401 20 61 38 62 43 62 525 0 482 -1 487 -62 525
-32 19 -49 20 -403 20 -349 0 -372 -1 -402 -20z m717 -525 l0 -395 -315 0
-315 0 0 395 0 395 315 0 315 0 0 -395z"/>
<path d="M2365 4706 c-17 -7 -40 -26 -50 -42 -19 -28 -20 -49 -20 -489 0 -440
1 -461 20 -489 38 -57 18 -56 837 -56 729 0 754 1 785 20 64 38 63 33 63 525
0 492 1 487 -63 525 -31 19 -55 20 -787 20 -605 -1 -761 -3 -785 -14z m365
-531 l0 -395 -145 0 -145 0 0 395 0 395 145 0 145 0 0 -395z m1120 0 l0 -395
-485 0 -485 0 0 395 0 395 485 0 485 0 0 -395z"/>
<path d="M3305 4379 c-49 -28 -58 -70 -24 -113 20 -26 21 -26 159 -26 130 0
141 1 160 22 25 27 26 69 1 99 -18 23 -26 24 -148 27 -82 1 -135 -2 -148 -9z"/>
<path d="M3091 4084 c-12 -15 -21 -33 -21 -40 0 -26 23 -62 47 -73 32 -15 409
-15 452 0 53 19 69 81 31 119 -19 19 -33 20 -254 20 l-235 0 -20 -26z"/>
<path d="M1183 3360 c-66 -40 -63 -4 -63 -802 0 -699 1 -724 20 -755 41 -68
-61 -63 1420 -63 1481 0 1379 -5 1420 63 19 31 20 56 20 755 0 798 3 762 -63
802 -31 19 -56 20 -784 20 -413 0 -759 -3 -768 -6 -8 -4 -23 -20 -31 -36 -13
-25 -13 -35 -3 -59 6 -17 20 -34 30 -39 10 -6 198 -10 464 -10 l447 0 -6 -25
c-37 -146 4 -315 105 -436 l41 -49 -49 0 c-222 -1 -421 -183 -455 -416 l-12
-81 -62 48 c-99 75 -157 93 -294 93 -137 0 -195 -18 -294 -93 l-62 -48 -12 81
c-34 234 -232 415 -455 416 l-49 0 41 49 c101 121 142 290 105 436 l-6 25 140
0 c126 0 142 2 166 21 19 15 26 30 26 54 0 24 -7 39 -26 54 -26 21 -37 21
-473 21 -425 0 -448 -1 -478 -20z m499 -167 c7 -21 13 -72 12 -113 0 -89 -20
-139 -86 -221 -25 -31 -51 -65 -57 -77 -18 -34 -13 -96 12 -132 37 -55 70 -74
141 -78 l64 -4 -62 -79 c-109 -138 -189 -316 -216 -479 -21 -135 -6 -120 -120
-120 l-100 0 0 670 0 670 199 0 199 0 14 -37z m2168 -633 l0 -670 -100 0
c-114 0 -99 -15 -120 119 -27 164 -107 342 -216 481 l-62 78 64 4 c71 4 104
23 142 78 24 36 29 98 11 132 -6 12 -32 46 -57 77 -66 82 -86 132 -86 221 -1
41 5 92 12 113 l14 37 199 0 199 0 0 -670z m-1894 -92 c17 -18 38 -45 47 -60
23 -37 47 -132 47 -186 0 -102 93 -179 185 -153 19 5 56 28 83 51 26 23 70 54
97 68 44 24 62 27 145 27 83 0 101 -3 145 -27 28 -14 71 -45 97 -68 83 -73
166 -75 227 -5 33 38 37 50 45 140 8 88 32 149 81 203 l43 47 22 -20 c35 -32
115 -135 150 -195 60 -101 105 -233 123 -362 l6 -38 -939 0 -939 0 6 38 c25
174 93 338 191 462 45 57 94 110 102 110 3 0 20 -15 36 -32z"/>
<path d="M2295 2939 c-49 -28 -58 -70 -24 -113 41 -52 129 -22 129 45 0 53
-61 92 -105 68z"/>
<path d="M2516 2929 c-20 -16 -26 -29 -26 -59 0 -44 26 -70 70 -70 44 0 70 26
70 70 0 30 -6 43 -26 59 -15 12 -34 21 -44 21 -10 0 -29 -9 -44 -21z"/>
<path d="M2763 2940 c-45 -18 -57 -81 -23 -118 30 -32 82 -30 109 4 34 43 26
86 -20 109 -32 17 -35 17 -66 5z"/>
<path d="M1827 1620 c-58 -15 -114 -47 -157 -90 l-40 -40 -207 0 c-189 0 -211
-2 -240 -20 -64 -38 -63 -33 -63 -527 0 -427 1 -450 20 -480 40 -67 -17 -63
1002 -63 908 0 924 0 956 20 44 27 68 83 55 130 -11 41 -531 861 -574 905
l-29 30 -192 3 -192 3 -52 49 c-77 70 -195 103 -287 80z m154 -165 c45 -24 81
-80 87 -134 14 -153 -170 -247 -281 -143 -41 39 -57 74 -57 129 0 130 133 209
251 148z m-401 -167 c0 -33 10 -76 25 -113 l25 -59 -54 -54 c-100 -99 -136
-208 -136 -404 l0 -108 -85 0 -85 0 0 395 0 395 155 0 155 0 0 -52z m1150
-334 c135 -211 247 -389 248 -394 2 -6 -111 -10 -312 -10 l-316 0 0 134 c0
194 -37 295 -144 394 l-44 40 25 50 c14 29 27 77 30 111 l6 61 131 0 131 -1
245 -385z m-888 36 c49 -11 68 -10 132 5 l75 18 35 -27 c41 -31 69 -68 96
-128 16 -36 20 -66 20 -175 l0 -133 -306 0 -306 0 4 133 c3 120 6 138 31 189
34 70 109 142 140 135 12 -3 48 -11 79 -17z"/>
<path d="M3022 1470 c-44 -27 -68 -83 -55 -130 11 -41 531 -860 574 -905 l29
-30 164 -3 c184 -4 211 3 246 61 18 28 20 51 20 198 0 153 -2 168 -21 193 -27
34 -77 36 -107 3 -20 -22 -22 -33 -22 -165 l0 -142 -107 0 -108 1 -245 385
c-135 212 -246 389 -248 395 -2 5 133 9 352 9 l356 0 0 -113 c0 -100 2 -116
20 -135 14 -14 33 -22 55 -22 22 0 41 8 55 22 18 20 20 35 20 160 0 156 -9
185 -63 218 -30 19 -53 20 -457 20 -409 0 -426 -1 -458 -20z"/>
</g>
</svg>
