<?xml version="1.0" standalone="no"?>
<!DOCTYPE svg PUBLIC "-//W3C//DTD SVG 20010904//EN"
 "http://www.w3.org/TR/2001/REC-SVG-20010904/DTD/svg10.dtd">
<svg version="1.0" xmlns="http://www.w3.org/2000/svg"
 width="512.000000pt" height="512.000000pt" viewBox="0 0 512.000000 512.000000"
 preserveAspectRatio="xMidYMid meet">

<g transform="translate(0.000000,512.000000) scale(0.100000,-0.100000)"
fill="#ffffff" stroke="none">
<path d="M1640 4843 c-192 -14 -445 -70 -587 -128 -438 -181 -672 -514 -759
-1080 -18 -111 -19 -195 -19 -1075 0 -1053 -1 -1038 65 -1303 123 -492 425
-793 920 -917 258 -65 258 -65 1305 -65 1039 0 1035 0 1284 61 602 148 911
537 987 1243 21 201 21 1439 -1 1481 -32 62 -115 99 -183 81 -46 -13 -99 -65
-112 -112 -6 -18 -10 -143 -10 -277 l0 -242 -67 55 c-160 133 -349 180 -551
139 -150 -30 -175 -48 -700 -498 -266 -228 -499 -422 -518 -431 -75 -35 -205
-35 -273 0 -15 7 -63 43 -107 80 -92 77 -194 130 -291 150 -130 28 -278 14
-393 -37 -30 -14 -261 -163 -513 -333 -253 -169 -462 -303 -467 -299 -13 15
-38 162 -50 294 -8 87 -10 395 -7 1015 4 950 4 947 56 1147 95 366 313 584
679 679 189 49 234 52 877 58 592 6 611 7 645 27 58 34 82 79 78 145 -5 65
-32 109 -82 133 -30 14 -96 16 -598 14 -309 -1 -583 -3 -608 -5z m2540 -2473
c25 -13 114 -82 199 -154 l153 -131 -5 -245 c-6 -249 -18 -364 -56 -512 -94
-366 -313 -585 -679 -679 -210 -54 -215 -54 -1222 -54 -995 0 -1027 1 -1222
50 -196 48 -344 125 -457 237 -84 83 -120 137 -100 149 7 4 214 144 459 309
245 165 469 312 498 326 107 52 237 39 324 -31 182 -147 268 -190 409 -203
145 -14 268 9 384 73 35 20 259 204 538 444 339 290 490 414 520 425 23 8 49
17 57 20 36 13 156 -1 200 -24z"/>
<path d="M3760 4828 c-18 -13 -43 -36 -54 -51 -21 -28 -21 -39 -24 -504 l-3
-476 -97 96 c-76 74 -106 97 -134 102 -69 13 -145 -20 -174 -76 -21 -41 -21
-116 -1 -155 9 -16 120 -133 249 -261 336 -334 300 -333 631 -5 125 125 237
242 249 260 47 76 14 187 -66 223 -86 39 -131 22 -246 -95 l-85 -86 -5 474
c-5 462 -6 475 -26 503 -35 48 -82 73 -134 73 -32 0 -57 -7 -80 -22z"/>
<path d="M1773 3980 c-85 -22 -117 -38 -201 -97 -144 -102 -235 -280 -236
-463 -1 -164 54 -300 169 -416 230 -234 597 -234 830 0 115 115 170 251 169
416 -2 377 -366 656 -731 560z m263 -328 c115 -59 174 -188 140 -305 -21 -71
-65 -129 -123 -164 -42 -25 -58 -28 -133 -28 -75 0 -91 3 -133 28 -58 35 -102
93 -123 164 -39 135 42 277 186 324 41 14 142 3 186 -19z"/>
</g>
</svg>
