<?xml version="1.0" standalone="no"?>
<!DOCTYPE svg PUBLIC "-//W3C//DTD SVG 20010904//EN"
 "http://www.w3.org/TR/2001/REC-SVG-20010904/DTD/svg10.dtd">
<svg version="1.0" xmlns="http://www.w3.org/2000/svg"
 width="512.000000pt" height="512.000000pt" viewBox="0 0 512.000000 512.000000"
 preserveAspectRatio="xMidYMid meet">

<g transform="translate(0.000000,512.000000) scale(0.100000,-0.100000)"
fill="#ffffff" stroke="none">
<path d="M1900 5056 c-106 -29 -195 -97 -245 -188 l-30 -53 -3 -635 -3 -636
-87 0 c-72 0 -97 -4 -142 -25 -112 -52 -165 -123 -195 -264 -9 -44 -62 -217
-117 -385 -54 -168 -114 -367 -133 -442 -41 -167 -72 -403 -81 -615 l-7 -158
-121 -135 c-66 -74 -135 -152 -153 -173 -41 -46 -44 -93 -10 -125 28 -27 77
-29 104 -4 19 17 117 125 266 294 l77 88 0 102 c0 210 33 488 80 684 16 66 72
252 124 412 52 160 107 339 121 399 21 86 33 114 57 140 74 77 228 62 265 -25
77 -185 61 -789 -26 -960 -29 -57 -26 -91 14 -159 50 -85 111 -243 145 -379
71 -286 79 -574 24 -946 -6 -41 -4 -49 19 -72 57 -57 129 -20 142 72 l7 52
540 0 539 0 -18 -32 c-27 -50 -130 -149 -203 -196 -95 -62 -265 -147 -340
-170 -104 -32 -240 -45 -380 -38 l-125 7 -152 -154 c-84 -85 -157 -166 -162
-180 -13 -33 -1 -69 31 -91 49 -34 65 -25 207 121 l133 138 112 -3 c252 -8
438 44 690 192 180 106 287 209 349 338 l32 68 232 0 c249 0 307 7 391 48 63
31 145 115 175 179 20 44 22 66 25 284 l4 236 96 6 c83 5 105 10 161 39 80 40
132 104 156 191 28 101 0 220 -69 286 l-34 33 34 55 c40 67 48 103 42 191 -6
74 -29 128 -78 181 -26 28 -30 38 -21 50 6 9 24 41 39 71 95 193 -56 430 -273
430 -53 0 -55 1 -54 28 0 24 25 45 201 172 208 151 235 175 270 244 30 57 36
167 13 235 -23 69 -99 151 -167 181 -82 36 -177 33 -256 -6 l-61 -30 -3 385
c-3 377 -4 387 -26 435 -32 70 -81 126 -143 163 -108 65 -81 63 -1064 62 -675
0 -901 -3 -935 -13z m1895 -173 c77 -41 115 -105 115 -193 l0 -50 -1065 0
-1065 0 0 61 c0 72 20 120 65 155 72 55 36 53 1010 51 l900 -2 40 -22z m115
-1873 l0 -1470 -949 0 -948 0 -13 93 c-25 186 -92 410 -171 574 l-40 81 20 63
c96 290 94 837 -4 1043 l-25 53 0 516 0 517 1065 0 1065 0 0 -1470z m432 894
c38 -20 68 -74 68 -123 0 -78 -12 -90 -262 -274 l-78 -57 0 177 0 178 56 49
c85 75 142 88 216 50z m-144 -884 c34 -21 72 -87 72 -125 0 -34 -37 -103 -66
-121 -15 -10 -51 -21 -81 -24 l-53 -6 0 148 0 148 48 0 c29 0 59 -8 80 -20z
m19 -450 c54 -24 83 -70 83 -131 0 -91 -67 -149 -172 -149 l-58 0 0 144 0 145
38 4 c20 2 44 4 52 5 8 1 34 -7 57 -18z m39 -456 c91 -43 110 -167 36 -236
-37 -34 -82 -48 -158 -48 l-64 0 0 144 0 145 28 4 c64 10 126 6 158 -9z m-346
-801 c0 -83 -24 -140 -73 -178 -75 -56 -57 -55 -980 -55 l-849 0 6 23 c3 12 6
79 6 150 l0 127 945 0 945 0 0 -67z"/>
</g>
</svg>
